Normalized EMG Linear Envelopes
nRows=125
nColumns=4

endheader
time	 med_gas_r	  soleus_r	 tib_ant_r	
3.22077	  0.014131	  0.016268	  0.004626	
3.29234	  0.015112	  0.015877	  0.005068	
3.36391	  0.015378	  0.015377	  0.005264	
3.43548	  0.015072	  0.014733	  0.005257	
3.50706	  0.014863	  0.014107	  0.005258	
3.57863	  0.015108	  0.013678	  0.005383	
3.6502	  0.015557	  0.013495	  0.005606	
3.72177	  0.015695	  0.013625	  0.005858	
3.79335	  0.015323	  0.014212	  0.006063	
3.86492	  0.014820	  0.015239	  0.006168	
3.93649	  0.014757	  0.016350	  0.006170	
4.00806	  0.015308	  0.017029	  0.006092	
4.07964	  0.016109	  0.017063	  0.005944	
4.15121	  0.016609	  0.016727	  0.005743	
4.22278	  0.016574	  0.016330	  0.005548	
4.29435	  0.016248	  0.015870	  0.005476	
4.36593	  0.015895	  0.015364	  0.005644	
4.4375	  0.015474	  0.015040	  0.006012	
4.50907	  0.014983	  0.014988	  0.006379	
4.58065	  0.014707	  0.015009	  0.006601	
4.65222	  0.014890	  0.014924	  0.006682	
4.72379	  0.015460	  0.014767	  0.006676	
4.79536	  0.016049	  0.014583	  0.006699	
4.86694	  0.016157	  0.014344	  0.006897	
4.93851	  0.015602	  0.014122	  0.007155	
5.01008	  0.014861	  0.014150	  0.007133	
5.08165	  0.014744	  0.014606	  0.006834	
5.15323	  0.015645	  0.015293	  0.006670	
5.2248	  0.016874	  0.015384	  0.006723	
5.29637	  0.016379	  0.013385	  0.006360	
5.36794	  0.011172	  0.007594	  0.004700	
5.43952	 -0.000835	 -0.001642	  0.001543	
5.51109	 -0.015798	 -0.007048	 -0.001080	
5.58266	 -0.016272	  0.010232	  0.002986	
5.65423	  0.033398	  0.077948	  0.023802	
5.72581	  0.172672	  0.207019	  0.068042	
5.79738	  0.395675	  0.354548	  0.125938	
5.86895	  0.618807	  0.449053	  0.172180	
5.94052	  0.745248	  0.472934	  0.190348	
6.0121	  0.755186	  0.466257	  0.187521	
6.08367	  0.693875	  0.452215	  0.178101	
6.15524	  0.605611	  0.425839	  0.167971	
6.22681	  0.511377	  0.390793	  0.157455	
6.29839	  0.422748	  0.355377	  0.146722	
6.36996	  0.355800	  0.321374	  0.136898	
6.44153	  0.325340	  0.292947	  0.130019	
6.5131	  0.328224	  0.273944	  0.127305	
6.58468	  0.343903	  0.262405	  0.127744	
6.65625	  0.350409	  0.257288	  0.128655	
6.72782	  0.339158	  0.260497	  0.127939	
6.7994	  0.319914	  0.270962	  0.125889	
6.87097	  0.309548	  0.283109	  0.123546	
6.94254	  0.316534	  0.292004	  0.120678	
7.01411	  0.336951	  0.297976	  0.117385	
7.08569	  0.358790	  0.304921	  0.115919	
7.15726	  0.372398	  0.314348	  0.118580	
7.22883	  0.379752	  0.322273	  0.124566	
7.3004	  0.385651	  0.323901	  0.131110	
7.37198	  0.385928	  0.318323	  0.137085	
7.44355	  0.377018	  0.306891	  0.143200	
7.51512	  0.366362	  0.294123	  0.149692	
7.58669	  0.362567	  0.287051	  0.154842	
7.65827	  0.364379	  0.288738	  0.155157	
7.72984	  0.364522	  0.297053	  0.149493	
7.80141	  0.358437	  0.305912	  0.142853	
7.87298	  0.346830	  0.309310	  0.141215	
7.94456	  0.334417	  0.310474	  0.143541	
8.01613	  0.328466	  0.317010	  0.144326	
8.0877	  0.333656	  0.326232	  0.142426	
8.15927	  0.346026	  0.327959	  0.141212	
8.23085	  0.356023	  0.317978	  0.141803	
8.30242	  0.359084	  0.301428	  0.142052	
8.37399	  0.358893	  0.287559	  0.139884	
8.44556	  0.359396	  0.282971	  0.134444	
8.51714	  0.358991	  0.287593	  0.127263	
8.58871	  0.354188	  0.297769	  0.122136	
8.66028	  0.347258	  0.313094	  0.121604	
8.73185	  0.345903	  0.335349	  0.125158	
8.80343	  0.353008	  0.359284	  0.130021	
8.875	  0.364849	  0.373514	  0.133541	
8.94657	  0.377415	  0.374093	  0.136658	
9.01815	  0.384736	  0.369041	  0.141198	
9.08972	  0.380672	  0.366622	  0.144127	
9.16129	  0.368674	  0.363025	  0.141627	
9.23286	  0.359910	  0.347914	  0.136673	
9.30444	  0.361040	  0.323660	  0.136199	
9.37601	  0.367230	  0.306016	  0.143026	
9.44758	  0.365590	  0.303113	  0.152934	
9.51915	  0.347730	  0.310313	  0.157608	
9.59073	  0.320506	  0.322216	  0.151681	
9.6623	  0.300771	  0.332989	  0.139049	
9.73387	  0.299480	  0.336890	  0.130620	
9.80544	  0.315020	  0.339342	  0.134138	
9.87702	  0.337400	  0.351480	  0.146368	
9.94859	  0.352424	  0.371656	  0.156421	
10.0202	  0.348705	  0.384062	  0.157043	
10.0917	  0.324302	  0.372272	  0.149705	
10.1633	  0.283491	  0.328597	  0.138059	
10.2349	  0.233436	  0.259427	  0.122233	
10.3065	  0.183899	  0.186088	  0.101998	
10.378	  0.140888	  0.128537	  0.080150	
10.4496	  0.102695	  0.088357	  0.060499	
10.5212	  0.067316	  0.057718	  0.045981	
10.5927	  0.038837	  0.035603	  0.037977	
10.6643	  0.022140	  0.025097	  0.034493	
10.7359	  0.016203	  0.024471	  0.031443	
10.8075	  0.016055	  0.027959	  0.027060	
10.879	  0.017454	  0.030562	  0.022655	
10.9506	  0.018278	  0.030451	  0.019756	
11.0222	  0.017952	  0.028290	  0.018411	
11.0937	  0.016709	  0.025085	  0.017664	
11.1653	  0.015248	  0.021751	  0.016791	
11.2369	  0.014439	  0.019531	  0.015828	
11.3085	  0.014690	  0.018954	  0.015181	
11.38	  0.015584	  0.019136	  0.015014	
11.4516	  0.016237	  0.018946	  0.014970	
11.5232	  0.016149	  0.018197	  0.014607	
11.5948	  0.015652	  0.017526	  0.014005	
11.6663	  0.015332	  0.017497	  0.013457	
11.7379	  0.015395	  0.017860	  0.012706	
11.8095	  0.015831	  0.017925	  0.011334	
11.881	  0.016495	  0.017598	  0.009717	
11.9526	  0.016783	  0.017303	  0.008697	
12.0242	  0.015991	  0.017197	  0.008552	
12.0958	  0.014220	  0.017164	  0.008907	
